<svg width="252.00751953124998px" height="117.239990234375px" xmlns="http://www.w3.org/2000/svg" viewBox="123.99624023437501 16.3800048828125 252.00751953124998 117.239990234375" style="background: rgba(0, 0, 0, 0);" preserveAspectRatio="xMidYMid"><defs><linearGradient id="editing-shiny-gradient" x1="0.04322727117869957" x2="0.9567727288213004" y1="0.2966316784620999" y2="0.7033683215379001" gradientUnits="objectBoundingBox"><stop offset="0.0" stop-color="#ffb200"></stop><stop offset="0.5" stop-color="#e10057"></stop><stop offset="1.0" stop-color="#5A1A80"></stop></linearGradient><linearGradient id="editing-shiny-gradient2" x1="0" x2="0" y1="0" y2="1"><stop offset="0.2" stop-color="#fff" stop-opacity="0.8"></stop><stop offset="0.8" stop-color="#fff" stop-opacity="0"></stop></linearGradient><filter id="editing-shiny2" x="-100%" y="-100%" width="300%" height="300%"><feMorphology operator="erode" radius="2"></feMorphology></filter><filter id="editing-shiny" x="-100%" y="-100%" width="300%" height="300%"><feFlood flood-color="#fff" result="flood"></feFlood><feConvolveMatrix in="SourceGraphic" result="conv" order="8,8" divisor="1" kernelMatrix="0 0 0 0 0 0 0 0 0 0 0 1 1 0 0 0 0 0 0 1 1 0 0 0 0 0 1 0 0 1 0 0 0 0 1 0 0 1 0 0 0 1 0 0 0 0 1 0 0 1 1 0 0 1 1 0 0 0 0 1 1 0 0 0 "></feConvolveMatrix><feOffset dx="0" dy="4" in="conv" result="offset"></feOffset><feComposite operator="in" in="flood" in2="offset" result="comp"></feComposite><feGaussianBlur in="offset" stdDeviation="3" result="shadow"></feGaussianBlur><feColorMatrix in="shadow" type="matrix" values="0.7 0 0 0 0  0 0.7 0 0 0  0 0 0.7 0 0  0 0 0 0.3 0" result="dark-shadow"></feColorMatrix><feOffset dx="0" dy="4" in="dark-shadow" result="offset-shadow"></feOffset><feOffset dx="0" dy="2" in="conv" result="offset-2"></feOffset><feComposite operator="out" in="offset" in2="offset-2" result="edge-diff"></feComposite><feGaussianBlur in="edge-diff" stdDeviation="1" result="edge-blur"></feGaussianBlur><feColorMatrix in="edge-blur" result="edge-shadow" type="matrix" values="0 0 0 0 0  0 0 0 0 0  0 0 0 0 0  0 0 0 0.5 0"></feColorMatrix><feComposite operator="in" in="edge-shadow" in2="offset" result="edge-shadow-in"></feComposite><feOffset dx="0" dy="1" in="edge-shadow-in" result="edge-shadow-final"></feOffset><feMerge result="out"><feMergeNode in="offset-shadow"></feMergeNode><feMergeNode in="comp"></feMergeNode><feMergeNode in="edge-shadow-final"></feMergeNode><feMergeNode in="SourceGraphic"></feMergeNode></feMerge></filter></defs><g filter="url(#editing-shiny)"><g transform="translate(143.12000346183777, 99)"><path d="M2.11-6.40L2.11-6.40L2.11-6.40Q2.11-8.13 3.01-12.48L3.01-12.48L6.40-29.76L2.62-29.76L2.88-31.68L2.88-31.68Q10.56-33.98 17.98-39.62L17.98-39.62L21.06-39.62L19.52-32.64L24.51-32.64L23.94-29.76L19.01-29.76L15.74-12.48L15.74-12.48Q14.91-8.51 14.91-7.17L14.91-7.17L14.91-7.17Q14.91-4.10 17.60-3.46L17.60-3.46L17.60-3.46Q16.96-1.28 14.66 0L14.66 0L14.66 0Q12.35 1.28 9.09 1.28L9.09 1.28L9.09 1.28Q5.82 1.28 3.97-0.77L3.97-0.77L3.97-0.77Q2.11-2.82 2.11-6.40ZM39.55-3.52L39.55-3.52L39.55-3.52Q37.57 1.28 31.23 1.28L31.23 1.28L31.23 1.28Q27.97 1.28 25.92-0.96L25.92-0.96L25.92-0.96Q24.19-2.94 24.19-4.93L24.19-4.93L24.19-4.93Q24.19-10.11 26.56-20.22L26.56-20.22L28.93-32.64L41.92-33.92L38.02-13.70L38.02-13.70Q36.93-8.96 36.93-7.30L36.93-7.30L36.93-7.30Q36.93-3.65 39.55-3.52ZM30.08-41.54L30.08-41.54L30.08-41.54Q30.08-44.03 32.16-45.38L32.16-45.38L32.16-45.38Q34.24-46.72 37.25-46.72L37.25-46.72L37.25-46.72Q40.26-46.72 42.08-45.38L42.08-45.38L42.08-45.38Q43.90-44.03 43.90-41.54L43.90-41.54L43.90-41.54Q43.90-39.04 41.89-37.76L41.89-37.76L41.89-37.76Q39.87-36.48 36.86-36.48L36.86-36.48L36.86-36.48Q33.86-36.48 31.97-37.76L31.97-37.76L31.97-37.76Q30.08-39.04 30.08-41.54ZM47.78-1.92L47.78-1.92L47.78-1.92Q46.27-3.58 45.60-6.21L45.60-6.21L45.60-6.21Q44.93-8.83 44.93-13.12L44.93-13.12L44.93-13.12Q44.93-17.41 46.40-21.31L46.40-21.31L46.40-21.31Q47.87-25.22 50.56-28.03L50.56-28.03L50.56-28.03Q56.06-33.92 65.15-33.92L65.15-33.92L65.15-33.92Q68.42-33.92 70.78-32.83L70.78-32.83L81.73-33.92L76.99-8.96L76.99-8.96Q76.80-8.19 76.80-6.78L76.80-6.78L76.80-6.78Q76.80-5.38 77.66-4.48L77.66-4.48L77.66-4.48Q78.53-3.58 79.81-3.46L79.81-3.46L79.81-3.46Q79.17-1.28 76.83 0L76.83 0L76.83 0Q74.50 1.28 71.87 1.28L71.87 1.28L71.87 1.28Q69.25 1.28 67.49 0.29L67.49 0.29L67.49 0.29Q65.73-0.70 65.22-2.37L65.22-2.37L65.22-2.37Q64.19-0.77 62.02 0.26L62.02 0.26L62.02 0.26Q59.84 1.28 56.93 1.28L56.93 1.28L56.93 1.28Q54.02 1.28 51.65 0.51L51.65 0.51L51.65 0.51Q49.28-0.26 47.78-1.92ZM61.28-27.90L61.28-27.90L61.28-27.90Q60.54-26.75 59.90-24.80L59.90-24.80L59.90-24.80Q59.26-22.85 58.21-17.63L58.21-17.63L58.21-17.63Q57.15-12.42 57.15-8.70L57.15-8.70L57.15-8.70Q57.15-4.99 57.73-3.90L57.73-3.90L57.73-3.90Q58.30-2.82 59.33-2.82L59.33-2.82L59.33-2.82Q61.38-2.82 62.88-4.77L62.88-4.77L62.88-4.77Q64.38-6.72 64.96-10.18L64.96-10.18L68.35-28.93L68.35-28.93Q67.01-30.08 65.44-30.08L65.44-30.08L65.44-30.08Q63.87-30.08 62.94-29.57L62.94-29.57L62.94-29.57Q62.02-29.06 61.28-27.90ZM132.93-10.69L132.93-10.69Q128.70-4.86 124.64-1.79L124.64-1.79L124.64-1.79Q120.58 1.28 116.38 1.28L116.38 1.28L116.38 1.28Q112.19 1.28 110.72 0.45L110.72 0.45L110.72-13.63L110.72-13.63Q107.07-3.90 100.54-0.13L100.54-0.13L100.54-0.13Q98.18 1.28 95.94 1.28L95.94 1.28L95.94 1.28Q91.65 1.28 89.79 0.45L89.79 0.45L89.79 0.45Q89.34-14.21 88.96-18.27L88.96-18.27L88.96-18.27Q88.58-22.34 88.26-24.83L88.26-24.83L88.26-24.83Q87.62-29.82 85.44-31.87L85.44-31.87L85.44-31.87Q88.19-33.92 92.03-33.92L92.03-33.92L92.03-33.92Q99.46-33.92 100.48-24.70L100.48-24.70L100.48-24.70Q100.74-22.53 100.74-20.22L100.74-20.22L100.74-20.22Q100.74-16.77 99.97-4.74L99.97-4.74L99.97-4.74Q101.50-5.44 103.14-7.97L103.14-7.97L103.14-7.97Q104.77-10.50 106.11-13.95L106.11-13.95L106.11-13.95Q109.12-21.95 109.12-28.86L109.12-28.86L109.12-28.86Q109.12-29.95 108.83-31.10L108.83-31.10L108.83-31.10Q108.54-32.26 108.22-32.58L108.22-32.58L108.22-32.58Q110.46-33.92 113.89-33.92L113.89-33.92L113.89-33.92Q117.31-33.92 118.94-31.58L118.94-31.58L118.94-31.58Q120.58-29.25 121.02-24.96L121.02-24.96L121.02-24.96Q121.54-19.52 121.54-16.26L121.54-16.26L121.54-16.26Q121.54-11.71 121.09-4.99L121.09-4.99L121.09-4.99Q124.29-7.30 126.91-14.85L126.91-14.85L126.91-14.85Q129.54-22.40 129.54-27.78L129.54-27.78L129.54-27.78Q129.54-30.14 129.15-31.55L129.15-31.55L129.15-31.55Q131.26-33.92 134.91-33.92L134.91-33.92L134.91-33.92Q137.15-33.92 138.78-32.70L138.78-32.70L138.78-32.70Q140.42-31.49 140.42-29.22L140.42-29.22L140.42-29.22Q140.42-26.94 139.74-24.51L139.74-24.51L139.74-24.51Q139.07-22.08 137.98-19.58L137.98-19.58L137.98-19.58Q135.87-14.59 132.93-10.69L132.93-10.69ZM168.06-10.82L168.06-10.82L168.06-10.82Q169.66-9.73 169.66-7.33L169.66-7.33L169.66-7.33Q169.66-4.93 168.45-3.39L168.45-3.39L168.45-3.39Q167.23-1.86 165.25-0.83L165.25-0.83L165.25-0.83Q161.15 1.28 156.74 1.28L156.74 1.28L156.74 1.28Q152.32 1.28 149.73 0.32L149.73 0.32L149.73 0.32Q147.14-0.64 145.41-2.43L145.41-2.43L145.41-2.43Q142.02-5.82 142.02-12.03L142.02-12.03L142.02-12.03Q142.02-21.70 147.26-27.58L147.26-27.58L147.26-27.58Q152.90-33.92 162.69-33.92L162.69-33.92L162.69-33.92Q168.77-33.92 171.78-31.36L171.78-31.36L171.78-31.36Q174.02-29.44 174.02-26.30L174.02-26.30L174.02-26.30Q174.02-15.04 154.56-15.04L154.56-15.04L154.56-15.04Q154.30-13.38 154.30-11.97L154.30-11.97L154.30-11.97Q154.30-9.02 155.62-7.90L155.62-7.90L155.62-7.90Q156.93-6.78 159.36-6.78L159.36-6.78L159.36-6.78Q161.79-6.78 164.38-7.90L164.38-7.90L164.38-7.90Q166.98-9.02 168.06-10.82ZM155.01-17.79L155.01-17.79L155.01-17.79Q159.55-17.79 162.18-20.61L162.18-20.61L162.18-20.61Q164.80-23.30 164.80-27.58L164.80-27.58L164.80-27.58Q164.80-29.06 164.26-29.86L164.26-29.86L164.26-29.86Q163.71-30.66 162.62-30.66L162.62-30.66L162.62-30.66Q161.54-30.66 160.61-30.24L160.61-30.24L160.61-30.24Q159.68-29.82 158.72-28.42L158.72-28.42L158.72-28.42Q156.35-25.22 155.01-17.79ZM175.36-3.07L175.36-3.07L183.30-44.80L196.29-46.08L194.30-36.29L194.30-36.29Q193.60-33.28 192.70-31.17L192.70-31.17L192.70-31.17Q194.11-32.96 197.18-33.66L197.18-33.66L197.18-33.66Q198.08-33.92 199.17-33.92L199.17-33.92L199.17-33.92Q205.12-33.92 208.38-30.30L208.38-30.30L208.38-30.30Q211.65-26.69 211.65-19.71L211.65-19.71L211.65-19.71Q211.65-10.62 206.46-4.93L206.46-4.93L206.46-4.93Q200.90 1.28 190.78 1.28L190.78 1.28L190.78 1.28Q183.81 1.28 178.56-1.02L178.56-1.02L178.56-1.02Q176.70-1.86 175.36-3.07ZM191.62-22.40L188.22-3.65L188.22-3.65Q189.57-2.50 191.23-2.50L191.23-2.50L191.23-2.50Q192.90-2.50 193.86-3.14L193.86-3.14L193.86-3.14Q194.82-3.78 195.52-5.06L195.52-5.06L195.52-5.06Q197.44-8.51 198.98-19.07L198.98-19.07L198.98-19.07Q199.42-22.08 199.42-25.09L199.42-25.09L199.42-25.09Q199.42-28.10 198.75-29.06L198.75-29.06L198.75-29.06Q198.08-30.02 196.80-30.02L196.80-30.02L196.80-30.02Q192.90-30.02 191.62-22.40L191.62-22.40Z" fill="url(#editing-shiny-gradient)"></path></g></g><g filter="url(#editing-shiny2)"><g transform="translate(143.12000346183777, 99)"><path d="M2.11-6.40L2.11-6.40L2.11-6.40Q2.11-8.13 3.01-12.48L3.01-12.48L6.40-29.76L2.62-29.76L2.88-31.68L2.88-31.68Q10.56-33.98 17.98-39.62L17.98-39.62L21.06-39.62L19.52-32.64L24.51-32.64L23.94-29.76L19.01-29.76L15.74-12.48L15.74-12.48Q14.91-8.51 14.91-7.17L14.91-7.17L14.91-7.17Q14.91-4.10 17.60-3.46L17.60-3.46L17.60-3.46Q16.96-1.28 14.66 0L14.66 0L14.66 0Q12.35 1.28 9.09 1.28L9.09 1.28L9.09 1.28Q5.82 1.28 3.97-0.77L3.97-0.77L3.97-0.77Q2.11-2.82 2.11-6.40ZM39.55-3.52L39.55-3.52L39.55-3.52Q37.57 1.28 31.23 1.28L31.23 1.28L31.23 1.28Q27.97 1.28 25.92-0.96L25.92-0.96L25.92-0.96Q24.19-2.94 24.19-4.93L24.19-4.93L24.19-4.93Q24.19-10.11 26.56-20.22L26.56-20.22L28.93-32.64L41.92-33.92L38.02-13.70L38.02-13.70Q36.93-8.96 36.93-7.30L36.93-7.30L36.93-7.30Q36.93-3.65 39.55-3.52ZM30.08-41.54L30.08-41.54L30.08-41.54Q30.08-44.03 32.16-45.38L32.16-45.38L32.16-45.38Q34.24-46.72 37.25-46.72L37.25-46.72L37.25-46.72Q40.26-46.72 42.08-45.38L42.08-45.38L42.08-45.38Q43.90-44.03 43.90-41.54L43.90-41.54L43.90-41.54Q43.90-39.04 41.89-37.76L41.89-37.76L41.89-37.76Q39.87-36.48 36.86-36.48L36.86-36.48L36.86-36.48Q33.86-36.48 31.97-37.76L31.97-37.76L31.97-37.76Q30.08-39.04 30.08-41.54ZM47.78-1.92L47.78-1.92L47.78-1.92Q46.27-3.58 45.60-6.21L45.60-6.21L45.60-6.21Q44.93-8.83 44.93-13.12L44.93-13.12L44.93-13.12Q44.93-17.41 46.40-21.31L46.40-21.31L46.40-21.31Q47.87-25.22 50.56-28.03L50.56-28.03L50.56-28.03Q56.06-33.92 65.15-33.92L65.15-33.92L65.15-33.92Q68.42-33.92 70.78-32.83L70.78-32.83L81.73-33.92L76.99-8.96L76.99-8.96Q76.80-8.19 76.80-6.78L76.80-6.78L76.80-6.78Q76.80-5.38 77.66-4.48L77.66-4.48L77.66-4.48Q78.53-3.58 79.81-3.46L79.81-3.46L79.81-3.46Q79.17-1.28 76.83 0L76.83 0L76.83 0Q74.50 1.28 71.87 1.28L71.87 1.28L71.87 1.28Q69.25 1.28 67.49 0.29L67.49 0.29L67.49 0.29Q65.73-0.70 65.22-2.37L65.22-2.37L65.22-2.37Q64.19-0.77 62.02 0.26L62.02 0.26L62.02 0.26Q59.84 1.28 56.93 1.28L56.93 1.28L56.93 1.28Q54.02 1.28 51.65 0.51L51.65 0.51L51.65 0.51Q49.28-0.26 47.78-1.92ZM61.28-27.90L61.28-27.90L61.28-27.90Q60.54-26.75 59.90-24.80L59.90-24.80L59.90-24.80Q59.26-22.85 58.21-17.63L58.21-17.63L58.21-17.63Q57.15-12.42 57.15-8.70L57.15-8.70L57.15-8.70Q57.15-4.99 57.73-3.90L57.73-3.90L57.73-3.90Q58.30-2.82 59.33-2.82L59.33-2.82L59.33-2.82Q61.38-2.82 62.88-4.77L62.88-4.77L62.88-4.77Q64.38-6.72 64.96-10.18L64.96-10.18L68.35-28.93L68.35-28.93Q67.01-30.08 65.44-30.08L65.44-30.08L65.44-30.08Q63.87-30.08 62.94-29.57L62.94-29.57L62.94-29.57Q62.02-29.06 61.28-27.90ZM132.93-10.69L132.93-10.69Q128.70-4.86 124.64-1.79L124.64-1.79L124.64-1.79Q120.58 1.28 116.38 1.28L116.38 1.28L116.38 1.28Q112.19 1.28 110.72 0.45L110.72 0.45L110.72-13.63L110.72-13.63Q107.07-3.90 100.54-0.13L100.54-0.13L100.54-0.13Q98.18 1.28 95.94 1.28L95.94 1.28L95.94 1.28Q91.65 1.28 89.79 0.45L89.79 0.45L89.79 0.45Q89.34-14.21 88.96-18.27L88.96-18.27L88.96-18.27Q88.58-22.34 88.26-24.83L88.26-24.83L88.26-24.83Q87.62-29.82 85.44-31.87L85.44-31.87L85.44-31.87Q88.19-33.92 92.03-33.92L92.03-33.92L92.03-33.92Q99.46-33.92 100.48-24.70L100.48-24.70L100.48-24.70Q100.74-22.53 100.74-20.22L100.74-20.22L100.74-20.22Q100.74-16.77 99.97-4.74L99.97-4.74L99.97-4.74Q101.50-5.44 103.14-7.97L103.14-7.97L103.14-7.97Q104.77-10.50 106.11-13.95L106.11-13.95L106.11-13.95Q109.12-21.95 109.12-28.86L109.12-28.86L109.12-28.86Q109.12-29.95 108.83-31.10L108.83-31.10L108.83-31.10Q108.54-32.26 108.22-32.58L108.22-32.58L108.22-32.58Q110.46-33.92 113.89-33.92L113.89-33.92L113.89-33.92Q117.31-33.92 118.94-31.58L118.94-31.58L118.94-31.58Q120.58-29.25 121.02-24.96L121.02-24.96L121.02-24.96Q121.54-19.52 121.54-16.26L121.54-16.26L121.54-16.26Q121.54-11.71 121.09-4.99L121.09-4.99L121.09-4.99Q124.29-7.30 126.91-14.85L126.91-14.85L126.91-14.85Q129.54-22.40 129.54-27.78L129.54-27.78L129.54-27.78Q129.54-30.14 129.15-31.55L129.15-31.55L129.15-31.55Q131.26-33.92 134.91-33.92L134.91-33.92L134.91-33.92Q137.15-33.92 138.78-32.70L138.78-32.70L138.78-32.70Q140.42-31.49 140.42-29.22L140.42-29.22L140.42-29.22Q140.42-26.94 139.74-24.51L139.74-24.51L139.74-24.51Q139.07-22.08 137.98-19.58L137.98-19.58L137.98-19.58Q135.87-14.59 132.93-10.69L132.93-10.69ZM168.06-10.82L168.06-10.82L168.06-10.82Q169.66-9.73 169.66-7.33L169.66-7.33L169.66-7.33Q169.66-4.93 168.45-3.39L168.45-3.39L168.45-3.39Q167.23-1.86 165.25-0.83L165.25-0.83L165.25-0.83Q161.15 1.28 156.74 1.28L156.74 1.28L156.74 1.28Q152.32 1.28 149.73 0.32L149.73 0.32L149.73 0.32Q147.14-0.64 145.41-2.43L145.41-2.43L145.41-2.43Q142.02-5.82 142.02-12.03L142.02-12.03L142.02-12.03Q142.02-21.70 147.26-27.58L147.26-27.58L147.26-27.58Q152.90-33.92 162.69-33.92L162.69-33.92L162.69-33.92Q168.77-33.92 171.78-31.36L171.78-31.36L171.78-31.36Q174.02-29.44 174.02-26.30L174.02-26.30L174.02-26.30Q174.02-15.04 154.56-15.04L154.56-15.04L154.56-15.04Q154.30-13.38 154.30-11.97L154.30-11.97L154.30-11.97Q154.30-9.02 155.62-7.90L155.62-7.90L155.62-7.90Q156.93-6.78 159.36-6.78L159.36-6.78L159.36-6.78Q161.79-6.78 164.38-7.90L164.38-7.90L164.38-7.90Q166.98-9.02 168.06-10.82ZM155.01-17.79L155.01-17.79L155.01-17.79Q159.55-17.79 162.18-20.61L162.18-20.61L162.18-20.61Q164.80-23.30 164.80-27.58L164.80-27.58L164.80-27.58Q164.80-29.06 164.26-29.86L164.26-29.86L164.26-29.86Q163.71-30.66 162.62-30.66L162.62-30.66L162.62-30.66Q161.54-30.66 160.61-30.24L160.61-30.24L160.61-30.24Q159.68-29.82 158.72-28.42L158.72-28.42L158.72-28.42Q156.35-25.22 155.01-17.79ZM175.36-3.07L175.36-3.07L183.30-44.80L196.29-46.08L194.30-36.29L194.30-36.29Q193.60-33.28 192.70-31.17L192.70-31.17L192.70-31.17Q194.11-32.96 197.18-33.66L197.18-33.66L197.18-33.66Q198.08-33.92 199.17-33.92L199.17-33.92L199.17-33.92Q205.12-33.92 208.38-30.30L208.38-30.30L208.38-30.30Q211.65-26.69 211.65-19.71L211.65-19.71L211.65-19.71Q211.65-10.62 206.46-4.93L206.46-4.93L206.46-4.93Q200.90 1.28 190.78 1.28L190.78 1.28L190.78 1.28Q183.81 1.28 178.56-1.02L178.56-1.02L178.56-1.02Q176.70-1.86 175.36-3.07ZM191.62-22.40L188.22-3.65L188.22-3.65Q189.57-2.50 191.23-2.50L191.23-2.50L191.23-2.50Q192.90-2.50 193.86-3.14L193.86-3.14L193.86-3.14Q194.82-3.78 195.52-5.06L195.52-5.06L195.52-5.06Q197.44-8.51 198.98-19.07L198.98-19.07L198.98-19.07Q199.42-22.08 199.42-25.09L199.42-25.09L199.42-25.09Q199.42-28.10 198.75-29.06L198.75-29.06L198.75-29.06Q198.08-30.02 196.80-30.02L196.80-30.02L196.80-30.02Q192.90-30.02 191.62-22.40L191.62-22.40Z" fill="url(#editing-shiny-gradient2)"></path></g></g><style>text {
  font-size: 64px;
  font-family: Arial Black;
  dominant-baseline: central;
  text-anchor: middle;
}</style></svg>